# xmcd
#
# Track frame offsets:
#  183
#  10108
#  24143
#  36985
#  55470
#  71858
#  84508
#  99870
#  117910
#  129070
#
# Disc length: 1915 seconds
#
# Revision: 3
# Processed by: cddbd v1.5.1PL2 Copyright (c) Steve Scherf et al.
# Submitted via: Collectorz.com_Music_Collector 6.9
#
DISCID=7407790a
DTITLE=Anne Murray - Anne Murray's Greatest Hits
DYEAR=1980
DGENRE=Country
TTITLE0=Snowbird
TTITLE1=Danny's Song
TTITLE2=A Love Song
TTITLE3=You Wont't See Me
TTITLE4=You Needed Me
TTITLE5=I Just Fall in Love Again
TTITLE6=Shadows in the Moonlight
TTITLE7=Broken Hearted Me
TTITLE8=Daydream Believer
TTITLE9=Could I Have This Dance
EXTD=
EXTT0=
EXTT1=
EXTT2=
EXTT3=
EXTT4=
EXTT5=
EXTT6=
EXTT7=
EXTT8=
EXTT9=
PLAYORDER=
